<svg width="24.000000" height="24.000000" viewBox="0 0 24 24" fill="none" xmlns="http://www.w3.org/2000/svg" xmlns:xlink="http://www.w3.org/1999/xlink">
	<desc>
			Created with Pixso.
	</desc>
	<defs>
		<clipPath id="clip5_1632">
			<rect id="style=mail" rx="0.000000" width="23.000000" height="23.000000" transform="translate(0.500000 0.500000)" fill="white" fill-opacity="0"/>
		</clipPath>
	</defs>
	<rect id="style=mail" rx="0.000000" width="23.000000" height="23.000000" transform="translate(0.500000 0.500000)" fill="#FFFFFF" fill-opacity="0"/>
	<g clip-path="url(#clip5_1632)">
		<path id="Icon" d="M6.8 21C5.11 21 4.27 21 3.63 20.67C3.07 20.38 2.61 19.92 2.32 19.36C2 18.72 2 17.88 2 16.2L2 8.86C2 8.55 2 8.39 2.04 8.24C2.08 8.12 2.14 8 2.23 7.9C2.32 7.78 2.46 7.69 2.72 7.52L10.25 2.63C10.88 2.22 11.2 2.01 11.54 1.93C11.84 1.86 12.15 1.86 12.45 1.93C12.79 2.01 13.11 2.22 13.74 2.63L21.27 7.52C21.53 7.69 21.67 7.78 21.76 7.9C21.85 8 21.91 8.12 21.95 8.24C22 8.39 22 8.55 22 8.86L22 16.2C22 17.88 22 18.72 21.67 19.36C21.38 19.92 20.92 20.38 20.36 20.67C19.72 21 18.88 21 17.2 21L6.8 21ZM10.25 2.63L3.03 7.32C2.68 7.55 2.51 7.66 2.45 7.8C2.4 7.93 2.4 8.06 2.45 8.19C2.51 8.33 2.68 8.44 3.03 8.67L10.25 13.36C10.88 13.77 11.2 13.98 11.54 14.06C11.84 14.13 12.15 14.13 12.45 14.06C12.79 13.98 13.11 13.77 13.74 13.36L20.96 8.67C21.31 8.44 21.48 8.33 21.54 8.19C21.59 8.06 21.59 7.93 21.54 7.8C21.48 7.66 21.31 7.55 20.96 7.32L13.74 2.63" stroke="#CCCCCC" stroke-opacity="1.000000" stroke-width="2.000000" stroke-linejoin="round"/>
	</g>
</svg>
