<svg width="24.000000" height="24.000000" viewBox="0 0 24 24" fill="none" xmlns="http://www.w3.org/2000/svg" xmlns:xlink="http://www.w3.org/1999/xlink">
	<desc>
			Created with Pixso.
	</desc>
	<defs>
		<clipPath id="clip5_1630">
			<rect id="style=phone" rx="0.000000" width="23.000000" height="23.000000" transform="translate(0.500000 0.500000)" fill="white" fill-opacity="0"/>
		</clipPath>
	</defs>
	<rect id="style=phone" rx="0.000000" width="23.000000" height="23.000000" transform="translate(0.500000 0.500000)" fill="#FFFFFF" fill-opacity="0"/>
	<g clip-path="url(#clip5_1630)">
		<path id="Icon" d="M7.38 9.85C7.32 9.72 7.29 9.66 7.26 9.58C7.18 9.3 7.24 8.96 7.41 8.72C7.46 8.65 7.51 8.6 7.63 8.48C7.98 8.13 8.15 7.96 8.27 7.78C8.7 7.12 8.7 6.26 8.27 5.6C8.15 5.43 7.98 5.25 7.63 4.9L7.43 4.71C6.9 4.17 6.64 3.91 6.35 3.76C5.78 3.48 5.11 3.48 4.55 3.76C4.26 3.91 3.99 4.17 3.46 4.71L3.31 4.86C2.78 5.39 2.51 5.66 2.31 6.02C2.08 6.42 1.92 7.04 1.92 7.5C1.93 7.91 2.01 8.19 2.17 8.76C3.03 11.79 4.65 14.65 7.04 17.04C9.43 19.43 12.29 21.05 15.32 21.91C15.89 22.07 16.17 22.15 16.58 22.16C17.04 22.16 17.66 22 18.06 21.77C18.42 21.57 18.69 21.3 19.22 20.77L19.37 20.62C19.9 20.08 20.17 19.82 20.31 19.53C20.6 18.97 20.6 18.3 20.31 17.73C20.17 17.44 19.9 17.18 19.37 16.65L19.18 16.45C18.83 16.1 18.65 15.93 18.48 15.81C17.82 15.38 16.96 15.38 16.3 15.81C16.12 15.93 15.95 16.1 15.6 16.45C15.48 16.57 15.43 16.62 15.36 16.67C15.12 16.84 14.78 16.9 14.5 16.82C14.42 16.79 14.36 16.76 14.23 16.7C12.78 16.01 11.42 15.06 10.22 13.86C9.02 12.66 8.07 11.3 7.38 9.85ZM14.04 6C15.02 6.19 15.92 6.66 16.62 7.37C17.33 8.07 17.8 8.97 17.99 9.95M14.04 2C16.07 2.22 17.97 3.13 19.41 4.57C20.86 6.01 21.77 7.91 21.99 9.93" stroke="#CCCCCC" stroke-opacity="1.000000" stroke-width="2.000000" stroke-linejoin="round" stroke-linecap="round"/>
	</g>
</svg>
